<svg xmlns="http://www.w3.org/2000/svg" viewBox="0 0 512 512">
  <defs>
    <linearGradient id="bg" x1="76" y1="48" x2="436" y2="464" gradientUnits="userSpaceOnUse">
      <stop stop-color="#16110d"/>
      <stop offset="0.52" stop-color="#0c0908"/>
      <stop offset="1" stop-color="#2b170d"/>
    </linearGradient>
    <linearGradient id="gold" x1="96" y1="80" x2="420" y2="430" gradientUnits="userSpaceOnUse">
      <stop stop-color="#fff4a8"/>
      <stop offset="0.32" stop-color="#ffd700"/>
      <stop offset="0.68" stop-color="#ff9f1c"/>
      <stop offset="1" stop-color="#b76e10"/>
    </linearGradient>
    <filter id="glow" x="-20%" y="-20%" width="140%" height="140%">
      <feGaussianBlur stdDeviation="7" result="blur"/>
      <feMerge>
        <feMergeNode in="blur"/>
        <feMergeNode in="SourceGraphic"/>
      </feMerge>
    </filter>
  </defs>
  <rect width="512" height="512" rx="112" fill="url(#bg)"/>
  <path d="M112 124h288c17.7 0 32 14.3 32 32v200c0 17.7-14.3 32-32 32H112c-17.7 0-32-14.3-32-32V156c0-17.7 14.3-32 32-32Z" fill="#120d0a" stroke="url(#gold)" stroke-width="18"/>
  <path d="M176 160v192M256 160v192M336 160v192M128 208h256M128 288h256" stroke="#5d4320" stroke-width="10" stroke-linecap="round" opacity=".75"/>
  <path d="M157 192l54 54m0-54-54 54" stroke="url(#gold)" stroke-width="20" stroke-linecap="round" filter="url(#glow)"/>
  <circle cx="296" cy="218" r="37" fill="none" stroke="#d9d9d9" stroke-width="19" filter="url(#glow)"/>
  <path d="M297 294l54 54m0-54-54 54" stroke="url(#gold)" stroke-width="20" stroke-linecap="round" filter="url(#glow)"/>
  <circle cx="178" cy="320" r="37" fill="none" stroke="#d9d9d9" stroke-width="19" filter="url(#glow)"/>
  <path d="M96 392c38 34 91 52 160 52s122-18 160-52" fill="none" stroke="#ffd700" stroke-width="13" stroke-linecap="round" opacity=".55"/>
</svg>
